<svg width="46" height="46" viewBox="0 0 46 46" fill="none" xmlns="http://www.w3.org/2000/svg">
<g clip-path="url(#clip0_1_2)">
<path d="M13.8076 13.8076C14.1709 13.4591 14.6279 13.2239 15.1227 13.131C15.6175 13.0381 16.1286 13.0914 16.5936 13.2844L37.623 21.5858C38.027 21.7376 38.3867 21.9881 38.6693 22.3143C38.952 22.6405 39.1486 23.0322 39.2413 23.4537C39.3341 23.8753 39.32 24.3133 39.2004 24.7281C39.0807 25.1428 38.8594 25.521 38.5564 25.8284C38.3322 26.0147 38.0934 26.1826 37.8422 26.3305L30.1701 29.0811C29.9205 29.1728 29.6937 29.3176 29.5054 29.5054C29.3258 29.6825 29.188 29.8975 29.1023 30.1347L26.2103 37.7078C26.0671 37.9328 25.9088 38.1478 25.7365 38.3513C25.4325 38.6539 25.058 38.8762 24.6468 38.9983C24.2356 39.1204 23.8005 39.1384 23.3805 39.0508C22.9606 38.9631 22.5691 38.7726 22.241 38.4962C21.9129 38.2199 21.6586 37.8663 21.5009 37.4674L13.2419 16.636C13.0438 16.1619 12.9918 15.6393 13.0926 15.1354C13.1934 14.6315 13.4424 14.1691 13.8076 13.8076ZM12.3934 12.3934C11.7512 13.03 11.3119 13.8424 11.1307 14.7283C10.9495 15.6141 11.0345 16.5338 11.3752 17.3714L19.5847 38.1957C19.8603 38.9022 20.307 39.5292 20.8847 40.0204C21.4625 40.5117 22.1532 40.8518 22.8948 41.0102C23.6364 41.1686 24.4057 41.1404 25.1337 40.9281C25.8618 40.7158 26.5257 40.326 27.0659 39.7938C27.3432 39.494 27.5895 39.1671 27.8013 38.818C27.8788 38.7006 27.9428 38.5749 27.9922 38.4432L30.9055 30.9055L38.4927 28.1831C38.6246 28.1403 38.7505 28.0809 38.8675 28.0063C39.261 27.7913 39.6308 27.5353 39.9706 27.2426C40.5078 26.7046 40.9029 26.0415 41.1204 25.3129C41.338 24.5843 41.3711 23.8131 41.2169 23.0686C41.0626 22.3241 40.7259 21.6295 40.2368 21.0473C39.7477 20.4651 39.1217 20.0136 38.4149 19.7332L17.3785 11.4247C16.5438 11.0816 15.6268 10.9905 14.7409 11.1627C13.855 11.3348 13.0389 11.7627 12.3934 12.3934Z" fill="#111920"/>
</g>
<defs>
<clipPath id="clip0_1_2">
<rect width="32" height="32" fill="white" transform="translate(0.372597 23) rotate(-45)"/>
</clipPath>
</defs>
</svg>
